<?xml version="1.0" encoding="UTF-8" standalone="no"?>
<svg xmlns:dc="http://purl.org/dc/elements/1.1/" xmlns:cc="http://creativecommons.org/ns#" xmlns:rdf="http://www.w3.org/1999/02/22-rdf-syntax-ns#" xmlns:svg="http://www.w3.org/2000/svg" xmlns="http://www.w3.org/2000/svg" xmlns:sodipodi="http://sodipodi.sourceforge.net/DTD/sodipodi-0.dtd" xmlns:inkscape="http://www.inkscape.org/namespaces/inkscape" width="113.53054mm" height="114.49689mm" viewBox="0 0 113.53054 114.49689" version="1.1" id="svg8" inkscape:version="1.0.2 (e86c870879, 2021-01-15, custom)" sodipodi:docname="drawing.svg">
	<defs id="defs2" />
	<namedview id="base" pagecolor="#ffffff" bordercolor="#666666" borderopacity="1.0" inkscape:pageopacity="0.0" inkscape:pageshadow="2" inkscape:zoom="0.98994949" inkscape:cx="296.24549" inkscape:cy="260.76582" inkscape:document-units="mm" inkscape:current-layer="layer1" inkscape:document-rotation="0" showgrid="false" inkscape:snap-global="false" inkscape:window-width="1920" inkscape:window-height="1058" inkscape:window-x="0" inkscape:window-y="22" inkscape:window-maximized="0" fit-margin-top="0" fit-margin-left="0" fit-margin-right="0" fit-margin-bottom="0" />
	<metadata id="metadata5">
		<RDF>
			<Work rdf:about="">
				<format>
					image/svg+xml
				</format>
				<type rdf:resource="http://purl.org/dc/dcmitype/StillImage" />
				<title>
				</title>
			</Work>
		</RDF>
	</metadata>
	<g inkscape:label="Layer 1" inkscape:groupmode="layer" id="layer1" transform="translate(-38.80604,-19.558004)">
		<path id="rect14" style="fill:#ffffff;fill-opacity:1;stroke:none;stroke-width:0.264999;stroke-opacity:1" d="M 38.80604,19.558004 V 134.05489 H 152.33658 V 82.727273 l -0.29353,8.002614 H 124.1538 v -1.117762 h 2.99723 v -33.32458 h -2.99723 v -1.117761 h 26.41596 l 0.50798,10.058818 h -0.91416 c -1.4224,-3.420533 -2.91266,-5.75736 -4.47053,-7.010426 -1.55786,-1.286934 -3.84384,-1.930631 -6.85798,-1.930631 h -1.77818 v 15.697232 h 1.72754 c 1.59173,0 2.92946,-0.592852 4.01319,-1.778185 1.08373,-1.2192 1.84538,-2.844705 2.28565,-4.876705 h 0.76223 v 15.036808 h -0.86352 c -0.6096,-2.54 -1.43938,-4.351594 -2.48925,-5.435328 -1.016,-1.083733 -2.42186,-1.62574 -4.2168,-1.62574 h -1.21904 v 16.306498 h 1.93063 c 3.11573,0 5.75711,-0.930962 7.92458,-2.793629 2.20133,-1.862667 3.70837,-4.250336 4.52117,-7.162869 h 0.90331 V 19.558004 Z m 68.83766,35.053157 c 2.06586,0 4.08084,0.271002 6.0451,0.812869 1.99814,0.508 3.16655,0.761712 3.50522,0.761712 0.33866,0 0.59289,-0.06762 0.76222,-0.203089 0.16934,-0.169333 0.35543,-0.440336 0.55863,-0.812869 h 0.55914 l 0.40617,11.023616 h -0.91415 c -1.524,-3.420533 -3.09918,-6.027846 -4.72478,-7.822779 -1.59173,-1.8288 -3.4201,-2.743502 -5.48597,-2.743502 -5.24933,0 -7.87445,5.063122 -7.87445,15.189255 v 4.01319 c 0,4.809066 0.69454,8.585308 2.08307,11.328508 1.38853,2.709333 3.43758,4.063836 6.14691,4.063836 3.72534,0 7.14566,-3.623709 10.26139,-10.871171 h 0.91468 l -0.35606,11.328506 h -0.55862 c -0.2032,-0.372533 -0.38928,-0.626761 -0.55862,-0.762228 -0.16933,-0.169333 -0.42356,-0.25373 -0.76223,-0.25373 -0.3048,0 -1.52405,0.271002 -3.65765,0.812869 -2.1336,0.508 -4.30112,0.761712 -6.50245,0.761712 -5.52027,0 -9.804448,-1.490261 -12.852448,-4.47053 -3.01413,-2.980264 -4.52117,-7.450534 -4.52117,-13.411067 0,-5.994398 1.57518,-10.617203 4.72478,-13.868403 3.18347,-3.2512 7.450348,-4.876705 12.801288,-4.876705 z m -36.37246,0.558623 h 15.493632 v 0.965314 h -2.79363 V 89.76457 h 2.79363 v 0.965317 H 71.27124 V 89.76457 h 2.793632 V 56.135098 H 71.27124 Z" />
		<g aria-label="ICE" id="text12" style="font-size:50.8px;line-height:1.25;font-family:'Abril Fatface';-inkscape-font-specification:'Abril Fatface';stroke:none;stroke-width:0.264583" transform="translate(3.2639079,1.4506273)" />
		
	</g>
</svg>
